<?xml version="1.0" encoding="utf-8"?>
<!-- Generator: Adobe Illustrator 27.2.0, SVG Export Plug-In . SVG Version: 6.00 Build 0)  -->
<svg version="1.1" id="Layer_1" xmlns="http://www.w3.org/2000/svg" xmlns:xlink="http://www.w3.org/1999/xlink" x="0px" y="0px"
	 viewBox="0 0 565.32 310.32" style="enable-background:new 0 0 565.32 310.32;" xml:space="preserve">
<style type="text/css">
	.st0{fill:url(#SVGID_1_);}
	.st1{fill:#671C56;}
	.st2{fill:url(#SVGID_00000005252200414659588170000002001458089919119251_);}
	.st3{fill:url(#SVGID_00000039109069201122915480000010464610361418333878_);}
</style>
<radialGradient id="SVGID_1_" cx="153.97" cy="149.72" r="150" gradientUnits="userSpaceOnUse">
	<stop  offset="0" style="stop-color:#FFFFFF"/>
	<stop  offset="1" style="stop-color:#9E1F63"/>
</radialGradient>
<path class="st0" d="M153.97-0.28c-82.85,0-150,67.16-150,150s67.15,150,150,150c82.84,0,150-67.16,150-150S236.81-0.28,153.97-0.28
	z M156.15,224.69c-0.72,0.02-1.45,0.03-2.18,0.03c-0.73,0-1.46-0.01-2.18-0.03c-40.41-1.15-72.82-34.28-72.82-74.97
	c0-41.42,33.58-75,75-75c41.42,0,75,33.58,75,75C228.97,190.41,196.56,223.54,156.15,224.69z"/>
<path class="st1" d="M266.43,112.26c0,61.38-49.17,111.28-110.28,112.43c40.41-1.15,72.82-34.28,72.82-74.97c0-41.42-33.58-75-75-75
	c-41.42,0-75,33.58-75,75c0,40.69,32.41,73.82,72.82,74.97C90.68,223.54,41.5,173.64,41.5,112.26C41.5,50.15,91.86-0.21,153.97-0.21
	S266.43,50.15,266.43,112.26z"/>
<linearGradient id="SVGID_00000054250225099560614220000013043995679916951998_" gradientUnits="userSpaceOnUse" x1="394.224" y1="-0.2794" x2="394.224" y2="298.2857">
	<stop  offset="0" style="stop-color:#FFFFFF"/>
	<stop  offset="1" style="stop-color:#9E1F63"/>
</linearGradient>
<path style="fill:url(#SVGID_00000054250225099560614220000013043995679916951998_);" d="M394.22,298.29L394.22,298.29
	c-23.94,0-43.34-19.41-43.34-43.34V43.07c0-23.94,19.41-43.34,43.34-43.34h0c23.94,0,43.34,19.41,43.34,43.34v211.88
	C437.57,278.88,418.16,298.29,394.22,298.29z"/>
<linearGradient id="SVGID_00000111173017094837644710000003635633450733111938_" gradientUnits="userSpaceOnUse" x1="512.1937" y1="299.3846" x2="512.1937" y2="0.8196">
	<stop  offset="0" style="stop-color:#FFFFFF"/>
	<stop  offset="1" style="stop-color:#9E1F63"/>
</linearGradient>
<path style="fill:url(#SVGID_00000111173017094837644710000003635633450733111938_);" d="M512.19,299.38L512.19,299.38
	c-23.94,0-43.34-19.41-43.34-43.34V44.16c0-23.94,19.41-43.34,43.34-43.34h0c23.94,0,43.34,19.41,43.34,43.34v211.88
	C555.54,279.98,536.13,299.38,512.19,299.38z"/>
<path class="st1" d="M533.79,293.71L533.79,293.71c-20.73,12.37-47.24,5.03-59.21-16.39L357.43,67.67
	c-11.97-21.42-4.87-48.81,15.87-61.18l0,0c20.73-12.37,47.24-5.03,59.21,16.39l117.15,209.65
	C561.63,253.96,554.53,281.35,533.79,293.71z"/>
</svg>
