<?xml version="1.0" encoding="utf-8"?>
<!-- Generator: Adobe Illustrator 27.2.0, SVG Export Plug-In . SVG Version: 6.00 Build 0)  -->
<svg version="1.1" id="Layer_1" xmlns="http://www.w3.org/2000/svg" xmlns:xlink="http://www.w3.org/1999/xlink" x="0px" y="0px"
	 viewBox="0 0 112.43 72.21" style="enable-background:new 0 0 112.43 72.21;" xml:space="preserve">
<style type="text/css">
	.st0{fill:#FFFFFF;}
	.st1{fill:none;stroke:#FFFFFF;stroke-linecap:round;stroke-linejoin:round;}
	.st2{fill:none;stroke:#FFFFFF;stroke-linejoin:round;}
	.st3{fill:none;stroke:#FFFFFF;stroke-linejoin:round;stroke-dasharray:11.9025,1.9837;}
	.st4{fill:none;stroke:#FFFFFF;stroke-linejoin:round;stroke-dasharray:11.8625,1.9771;}
	
		.st5{fill:none;stroke:#FFFFFF;stroke-width:4;stroke-linecap:round;stroke-linejoin:round;stroke-miterlimit:10;stroke-dasharray:0,6;}
	.st6{fill:none;stroke:#FFFFFF;stroke-width:2.4723;stroke-linecap:round;stroke-linejoin:round;stroke-miterlimit:10;}
	.st7{fill:none;stroke:#FFFFFF;stroke-width:1.2362;stroke-linecap:round;stroke-linejoin:round;stroke-miterlimit:10;}
	.st8{fill:none;stroke:#FFFFFF;stroke-linecap:round;stroke-linejoin:round;stroke-miterlimit:10;}
</style>
<g>
	<path class="st0" d="M-108.5,96.84c11.56-5.09,15.47-20.22,8.1-30.81c4.28,4.78,6.43,11.64,5.45,18.37
		c-0.99,6.74-5.09,13.1-11.22,16.86C-109.24,103.01-111.68,98.38-108.5,96.84L-108.5,96.84z"/>
</g>
<g>
	<path class="st0" d="M-97.59,64.99c0.77,4.34,6.71,6.44,10.84,5.45c5.23-1.02,9.74-4.6,14.19-7.6l6.96-4.79
		c4.39-3.25,9.86-5.82,12.3-10.92c1.12-2.46,1.33-5.57-0.27-7.96c1.79,2.29,1.82,5.53,0.85,8.19c-2.13,5.48-7.53,8.55-11.77,12.19
		l-6.59,5.29c-4.56,3.59-8.95,7.62-14.82,9.24c-6.4,1.91-14.84-1.07-16.59-8.1C-103.23,62.61-98.24,61.6-97.59,64.99L-97.59,64.99z"
		/>
</g>
<g>
	<path class="st0" d="M-92.85,76.57c15.73,2.06,32.06,1.94,47.75-0.97c5.44-1.07,6.94-5.05,7.22-10.13
		c0.42-4.83,0.51-9.67,0.27-14.52c0.37,3.22,0.59,6.45,0.66,9.7c0.34,11.15-0.35,15.94-12.47,17.91c-14.4,3-29.18,4-43.95,2.99
		c-1.38-0.09-2.42-1.29-2.32-2.67C-95.58,77.44-94.27,76.37-92.85,76.57L-92.85,76.57z"/>
</g>
<g>
	<path class="st0" d="M-86.87,83.64c14.9,3.56,28.98,4.97,42.88-2.78c4.41-2.29,8.62-5.02,12.81-7.76
		c-3.95,3.08-7.92,6.15-12.19,8.84c-8.5,5.68-18.96,8.42-29.2,8c-5.13-0.09-10.22-0.68-15.22-1.39c-1.37-0.19-2.32-1.46-2.13-2.83
		C-89.71,84.29-88.29,83.31-86.87,83.64L-86.87,83.64z"/>
</g>
<g>
	<path class="st0" d="M-71.83,93.87c2.48,2.68,6.66,1.38,10.03,0.72c4.26-0.99,8.5-1.99,12.68-3.16
		c8.39-2.31,16.61-5.35,23.94-10.13c-6.88,5.5-14.96,9.38-23.16,12.51c-4.12,1.58-8.29,3-12.44,4.39c-2.08,0.71-4.35,1.43-6.86,1.63
		c-2.72,0.26-5.91-0.44-7.93-2.63c-1.02-0.99-1.01-2.65,0.03-3.62C-74.47,92.55-72.72,92.7-71.83,93.87L-71.83,93.87z"/>
</g>
<g>
	<path class="st0" d="M-63.8,100.67c16.32,7.43,37.14,0.78,46.56-14.76c-8.42,17.19-30.05,25.84-48.34,19.43
		c-1.32-0.43-2.04-1.85-1.6-3.17C-66.72,100.78-65.13,100.07-63.8,100.67L-63.8,100.67z"/>
</g>
<g>
	<path class="st0" d="M-79.61,70.68c8.98,5.64,19.5-2.39,26.94-7.67c2.86-2.11,5.62-4.38,8.27-6.78c-2.36,2.69-4.85,5.27-7.47,7.73
		c-7.84,7.38-19,16.82-30.38,10.96C-85.29,73.16-82.55,68.73-79.61,70.68L-79.61,70.68z"/>
</g>
<g>
	<path class="st0" d="M-88.57,90.38c2.48,5.64,0.68,12.54-4.13,15.92c3.02-3.86,2.99-9.92-0.16-13.34
		C-95.45,89.79-90.19,86.6-88.57,90.38L-88.57,90.38z"/>
</g>
<g>
	<path class="st0" d="M-79.52,93.58c1.08,5.8-1.08,11.44-4.81,14.75c2.44-4.36,2.19-9.6,0.08-13.13
		C-86.12,91.54-80.31,89.54-79.52,93.58L-79.52,93.58z"/>
</g>
<g>
	<g>
		<path class="st1" d="M-191.81,191.6c-10.12,13.72-21.47,26.54-33.87,38.24"/>
		<g>
			<polygon class="st0" points="-191.75,192.16 -186.93,192.7 -186.25,191.79 -191.07,191.24 -190.4,190.33 -185.57,190.87 
				-184.9,189.96 -189.72,189.41 -189.04,188.5 -184.22,189.04 -183.54,188.13 -188.37,187.58 -187.68,186.65 -188.47,186.06 
				-189.17,186.99 -191.1,182.54 -191.78,183.46 -189.84,187.91 -190.52,188.82 -192.46,184.37 -193.13,185.29 -191.19,189.74 
				-191.87,190.65 -193.81,186.2 -194.49,187.12 -192.55,191.57 			"/>
		</g>
		<g>
			<path class="st0" d="M-230.12,233.94c1.32-2.72,2.63-6.46,2.89-9.35l2.05,4.63l4.53,2.25
				C-223.55,231.6-227.34,232.73-230.12,233.94z"/>
		</g>
	</g>
</g>
<g>
	<g>
		<path class="st1" d="M-186.16,207.4c-11.62,18.37-23.23,36.74-34.85,55.1"/>
		<g>
			<polygon class="st0" points="-185.96,208 -181.11,208.2 -180.5,207.24 -185.35,207.04 -184.75,206.08 -179.89,206.28 
				-179.29,205.31 -184.14,205.12 -183.53,204.16 -178.68,204.35 -178.07,203.39 -182.92,203.2 -182.3,202.21 -183.14,201.68 
				-183.76,202.67 -186.02,198.37 -186.62,199.33 -184.37,203.63 -184.98,204.59 -187.23,200.29 -187.84,201.25 -185.58,205.55 
				-186.19,206.51 -188.45,202.21 -189.06,203.17 -186.8,207.47 			"/>
		</g>
		<g>
			<path class="st0" d="M-224.23,267.6c0.63-2.96,0.99-6.9,0.55-9.77l3.1,4l4.94,1.09C-218.42,263.75-221.83,265.76-224.23,267.6z"
				/>
		</g>
	</g>
</g>
<g>
	<g>
		<path class="st1" d="M-171.46,239.58c-11.77,18.38-25.26,35.66-40.23,51.54"/>
		<g>
			<polygon class="st0" points="-171.28,240.18 -166.43,240.36 -165.82,239.4 -170.67,239.21 -170.07,238.25 -165.21,238.44 
				-164.61,237.47 -169.46,237.29 -168.85,236.32 -164,236.51 -163.39,235.55 -168.25,235.36 -167.63,234.38 -168.47,233.85 
				-169.09,234.83 -171.35,230.54 -171.96,231.5 -169.69,235.8 -170.3,236.76 -172.56,232.46 -173.17,233.43 -170.9,237.72 
				-171.51,238.69 -173.78,234.39 -174.38,235.35 -172.12,239.65 			"/>
		</g>
		<g>
			<path class="st0" d="M-215.87,295.47c1.19-2.79,2.31-6.58,2.43-9.47l2.27,4.52l4.63,2.02
				C-209.42,292.81-213.15,294.13-215.87,295.47z"/>
		</g>
	</g>
</g>
<g>
	<g>
		<path class="st1" d="M-171.72,271.17c-2.37,5.23-6.63,9.84-10.6,14.15c-10.65,11.57-20.51,23.86-29.49,36.77"/>
		<g>
			<polygon class="st0" points="-171.46,271.65 -166.77,270.38 -166.48,269.28 -171.17,270.55 -170.88,269.45 -166.19,268.18 
				-165.9,267.08 -170.59,268.35 -170.3,267.25 -165.61,265.98 -165.32,264.88 -170.01,266.15 -169.71,265.03 -170.67,264.77 
				-170.96,265.9 -174.41,262.48 -174.7,263.58 -171.26,267 -171.55,268.1 -174.99,264.68 -175.28,265.78 -171.84,269.2 
				-172.13,270.3 -175.57,266.88 -175.86,267.98 -172.42,271.4 			"/>
		</g>
		<g>
			<path class="st0" d="M-215.22,327.08c0.76-2.93,1.31-6.85,0.99-9.73l2.91,4.13l4.88,1.31
				C-209.24,323.5-212.73,325.36-215.22,327.08z"/>
		</g>
	</g>
</g>
<g>
	<g>
		<path class="st1" d="M-169.77,331.08c-11.11,12.11-22.22,24.22-33.33,36.33"/>
		<g>
			<polygon class="st0" points="-169.68,331.72 -164.94,332.77 -164.17,331.93 -168.91,330.88 -168.14,330.04 -163.4,331.1 
				-162.63,330.26 -167.37,329.2 -166.61,328.36 -161.86,329.42 -161.1,328.58 -165.84,327.53 -165.05,326.67 -165.78,326 
				-166.57,326.86 -168.02,322.22 -168.79,323.06 -167.34,327.69 -168.1,328.53 -169.56,323.9 -170.33,324.74 -168.87,329.37 
				-169.64,330.21 -171.1,325.58 -171.87,326.42 -170.41,331.05 			"/>
		</g>
		<g>
			<path class="st0" d="M-207.18,371.86c1.14-2.8,2.2-6.62,2.27-9.51l2.34,4.48l4.67,1.95
				C-200.78,369.1-204.49,370.48-207.18,371.86z"/>
		</g>
	</g>
</g>
<g>
	<g>
		<path class="st1" d="M-160.86,369.48c-5.91,14.4-12.73,28.43-20.4,41.98"/>
		<g>
			<polygon class="st0" points="-160.63,370.02 -155.82,369.37 -155.39,368.31 -160.2,368.96 -159.77,367.91 -154.96,367.26 
				-154.52,366.21 -159.34,366.86 -158.91,365.81 -154.09,365.15 -153.66,364.1 -158.47,364.75 -158.03,363.68 -158.95,363.3 
				-159.39,364.38 -162.36,360.54 -162.79,361.59 -159.82,365.43 -160.25,366.48 -163.22,362.64 -163.66,363.69 -160.69,367.54 
				-161.12,368.59 -164.09,364.75 -164.52,365.8 -161.55,369.64 			"/>
		</g>
		<g>
			<path class="st0" d="M-184.28,416.69c0.47-2.99,0.63-6.94,0.03-9.78l3.31,3.83l4.99,0.83
				C-178.68,412.53-181.97,414.73-184.28,416.69z"/>
		</g>
	</g>
</g>
<g>
	<g>
		<path class="st1" d="M-142.47,381.98c-1.26,7.6-3.45,15.04-6.51,22.1"/>
		<g>
			<polygon class="st0" points="-142.07,382.44 -137.59,380.57 -137.44,379.44 -141.92,381.32 -141.78,380.19 -137.3,378.31 
				-137.15,377.19 -141.63,379.06 -141.49,377.93 -137.01,376.06 -136.86,374.93 -141.34,376.8 -141.19,375.65 -142.18,375.52 
				-142.33,376.68 -146.19,373.73 -146.33,374.86 -142.47,377.8 -142.62,378.93 -146.48,375.99 -146.62,377.12 -142.76,380.06 
				-142.91,381.19 -146.77,378.25 -146.91,379.37 -143.05,382.32 			"/>
		</g>
		<g>
			<path class="st0" d="M-151.56,409.54c0.24-3.02,0.09-6.97-0.72-9.75l3.59,3.56l5.04,0.44
				C-146.3,404.97-149.41,407.41-151.56,409.54z"/>
		</g>
	</g>
</g>
<g>
	<g>
		<path class="st2" d="M68.26,161.08c-0.32,2-0.42,3.99-0.38,5.98"/>
		<path class="st3" d="M67.98,169.05c0.73,10.17,4.98,20.29,5.23,30.63c0.3,12.46-5.77,24.83-15.54,32.52"/>
		<path class="st2" d="M56.89,232.8c-1.6,1.2-3.29,2.27-5.07,3.2c3.09,1.85,6.18,3.69,9.28,5.54"/>
	</g>
</g>
<g>
	<g>
		<path class="st2" d="M61.49,241.77c2.65,0.59,5.3,1.19,7.96,1.78c0.31,0.61,0.61,1.23,0.92,1.84c-1.43,1.42-3.01,2.64-4.69,3.73"
			/>
		<path class="st4" d="M63.99,250.15c-9.64,5.57-21.93,7.65-28.68,16.49c-4.03,5.28-5.32,12.08-6.45,18.62
			c-3.74,21.79-6.89,43.99-15.77,64.24C5.15,367.61-8.19,384.29-26,392.36"/>
		<path class="st2" d="M-26.91,392.76c-1.83,0.79-3.7,1.49-5.62,2.1"/>
	</g>
</g>
<path class="st5" d="M-65.51,395.37c-11.4,17.63-18.5,38.01-20.52,58.91c-0.57,5.92-0.49,12.6,3.63,16.89
	c5.79,6.02,16.09,3.81,22.99-0.9c5.73-3.91,10.86-10.68,8.78-17.3c-2.06-6.55-9.79-9.14-16.5-10.6c-6.99-1.52-14.13-2.85-21.26-2.25
	c-7.13,0.6-14.34,3.36-18.98,8.81c-4.56,5.36-6.12,12.59-7.31,19.53c-1.01,5.89-1.59,12.75,2.56,17.06
	c3.94,4.09,10.39,4.04,16.06,3.7c31.44-1.9,63.68-3.98,92.38-16.94c3.17-1.43,6.38-3.06,8.61-5.74s3.23-6.65,1.55-9.7
	c-2.43-4.41-8.6-4.64-13.59-3.99c-6.1,0.78-12.36,2.1-17.35,5.69s-8.42,9.98-6.9,15.94c1.17,4.6,5.03,8.13,9.35,10.09
	s9.1,2.59,13.81,3.2c10.39,1.34,20.99,2.68,31.29,0.74S43.52,480.77,48,471.3c1.84-3.89,1.9-9.74-2.13-11.23
	c-2.69-0.99-5.69,0.72-7.46,2.96c-3.82,4.84-3.77,11.98-1.01,17.49c2.76,5.52,7.79,9.59,13.19,12.56
	c11.53,6.33,25.75,8.19,38.08,3.62s22.24-15.97,23.67-29.04"/>
<g>
	<path class="st0" d="M19.21,23.32c-4.5,0.59-8.06,3.18-10.72,6.66c-4.54,4.94-5.86,13.34-0.81,18.29c7.63,7.91,22.66,4.12,26.22-6
		c2.82-7.09,0.04-17.07-7.25-20.21c-1.13-0.46-2.33-0.59-3.42-0.44c-3.35,0.54-5.61,4.96-2.1,7.06c2.21,1.44,5.03,0.9,7.39-0.16
		c5.18-2.35,9.76-6.25,13.2-11.04c-3.24,6.14-9.64,12.99-16.88,14.34c-6.15,0.9-11.05-5.21-6.83-10.54c5.01-6.33,14-1.88,17.46,3.71
		c5.55,8.12,4.34,20.42-3.59,26.59c-5.06,4.12-12.02,5.74-18.33,3.94c-6.28-1.67-11.76-7.34-11.8-14.05
		c-0.12-4.81,2.04-9.45,5.47-12.64C10.3,25.52,14.59,23.14,19.21,23.32L19.21,23.32z"/>
</g>
<g>
	<path class="st0" d="M35.54,53.51c6.3-1.82,10.45-7.8,11.73-13.95c1.28-6.3,0.09-12.74-1.53-18.93c-0.58-2.27,2.64-3.44,3.6-1.3
		c3.44,7.75,7.07,16.44,10.32,24.34l3.24,8.17l-3.39,0.77c-0.11-6.07,0.21-12.19,1.62-18.13c1.36-5.64,4.33-12.68,10.74-13.63
		c-2.87,0.93-4.93,3.19-6.15,5.77c-3.57,8.01-3.11,17.22-2.69,25.84c0.12,1.94-2.57,2.61-3.36,0.85c-0.02-0.04-3.59-8.03-3.62-8.07
		c-3.4-7.82-7.06-16.42-10.22-24.29l3.64-1.22c1.47,6.65,2.37,13.82,0.36,20.52C47.89,46.75,42.49,52.92,35.54,53.51L35.54,53.51z"
		/>
</g>
<path class="st6" d="M73.8,29.31c1.25-4.03,4.93-7.21,9.11-7.82c3.07-0.46,6.55,0.59,8.13,3.26c1.16,1.95,1.14,4.39,0.82,6.64
	c-0.33,2.3-0.99,4.62-2.4,6.47c-1.89,2.46-3.96,4.02-7.39,3.46c-2-0.32-3.09,9.21-5.64,6.59c-0.94-0.98,0.06-7.28-0.33-8.18
	c-0.53-1.21-0.62-0.33-1.57-2.05C73.14,35.17,72.96,32.05,73.8,29.31z"/>
<circle class="st7" cx="75.74" cy="52.97" r="1.9"/>
<path class="st7" d="M70.61,13.68c2.39,2.27,4.78,4.56,7.17,6.84"/>
<path class="st7" d="M79.83,11.09c0.74,2.27,1.5,4.54,2.24,6.81"/>
<path class="st7" d="M89.34,11.94c-0.61,1.99-1.21,3.99-1.83,5.98"/>
<path class="st7" d="M101.04,17.57c-2.74,1.11-5.49,2.21-8.23,3.33"/>
<path class="st7" d="M106.17,24.12c-3.65,0.48-7.29,0.95-10.95,1.43"/>
<line class="st8" x1="239.32" y1="113.32" x2="239.32" y2="112.65"/>
</svg>
