<?xml version="1.0" encoding="utf-8"?>
<!-- Generator: Adobe Illustrator 27.2.0, SVG Export Plug-In . SVG Version: 6.00 Build 0)  -->
<svg version="1.1" id="Layer_1" xmlns="http://www.w3.org/2000/svg" xmlns:xlink="http://www.w3.org/1999/xlink" x="0px" y="0px"
	 viewBox="0 0 482 222" style="enable-background:new 0 0 482 222;" xml:space="preserve">
<style type="text/css">
	.st0{fill:#FFFFFF;stroke:#231F20;stroke-width:4;stroke-miterlimit:10;}
	.st1{fill:#FFFFFF;stroke:#231F20;stroke-width:4.3584;stroke-miterlimit:10;}
	.st2{fill:#FFFFFF;stroke:#231F20;stroke-width:4;stroke-linecap:round;stroke-miterlimit:10;}
	.st3{fill:#FFFFFF;stroke:#231F20;stroke-width:4.41;stroke-linecap:round;stroke-miterlimit:10;}
	.st4{fill:#FFFFFF;stroke:#FFFFFF;stroke-width:4;stroke-linecap:round;stroke-miterlimit:10;}
</style>
<g>
	<path class="st0" d="M173.39,62.52c-45.11-44.99-73.34-19.23-99.62,7.11c0,0,0,0,0,0C96,107,172.68,78.02,173,78
		C173,78,173.39,62.52,173.39,62.52z"/>
	<path class="st0" d="M73.76,69.64c-33.63,33.72-34.12,87.64-1.12,120.57c0,0,0,0,0,0L86,81C86,81,73.76,69.64,73.76,69.64z"/>
	<path class="st1" d="M166,172H77c-4.93,0.41-5.76,17.61-1.59,20.15c25.64,15.63,61.84,12.72,90.75-7.25
		C170.39,181.97,171.21,171.57,166,172z"/>
	<path class="st0" d="M168.47,181.83c34.33-34.42,36.53-87.78,4.92-119.31L168.47,181.83C168.47,181.83,168.47,181.84,168.47,181.83
		z"/>
</g>
<path class="st2" d="M276.61,144.19c8.93,15.98,17.64,26.54,25.39,37.81c3.59,5.23,12.58,14.91,18.85,13.94h0
	c5.77-0.89,10.69-4.74,12.82-10.18C349.73,144.69,339.81,91.72,322,54c-2.02-4.28-5.34-4.5-8.16-3.3c-2.58,1.09-4.5,3.35-5.4,6
	l-12.58,36.87c-0.79,2.31-3.84,2.8-5.32,0.85L266,62c-3.21-5.07-12.54-10.59-18.24-8.72l0,0c-7.19,2.36-16.19,7.6-18.76,14.72
	c-14.27,39.5-12.73,85.76,6,124c3.44,7.03,20.39,6.02,26.54-1.41l8.53-45.34C270.67,142,275,141.31,276.61,144.19z"/>
<path class="st3" d="M160.43,130.41c-0.01-3.54-2.66-6.96-6.48-6.97c-0.01-5.9-5.52-10.69-12.32-10.71
	c-0.01-4.72-3.8-8.55-8.47-8.56c-4.67-0.01-8.45,3.8-8.44,8.53c-0.01-4.72-4.48-8.55-10.01-8.57c-4.25-0.01-7.68,5.72-7.66,12.8
	c-7.22-0.02-13.06,4.84-13.05,8.97c0.03,3.21,2.71,10.69,6.53,10.65c0.05,5.36,5.6,9.64,12.39,9.57c0.04,4.28,3.86,7.71,8.53,7.67
	c4.67-0.05,8.42-3.55,8.38-7.84c0.04,4.28,4.55,7.71,10.07,7.65c4.25-0.04,7.63-5.28,7.57-11.7c7.22-0.07,12.99-8.01,12.95-11.76"/>
<rect x="388.82" y="159.71" class="st2" width="35.5" height="9.76"/>
<rect x="392.37" y="169.47" class="st2" width="28.4" height="9.76"/>
<rect x="388.82" y="179.23" class="st2" width="35.5" height="9.76"/>
<path class="st2" d="M448.62,93.96c0-25.38-19.06-45.96-42.58-45.96c-23.52,0-42.58,20.58-42.58,45.96
	c0,15.84,7.43,29.8,18.72,38.06c4.25,3.11,6.65,8.14,6.65,13.41V156h35.49v-11.62c0-5.05,2.32-9.84,6.33-12.91
	C441.52,123.14,448.62,109.44,448.62,93.96z"/>
<line class="st4" x1="349.44" y1="37.65" x2="369.86" y2="53.26"/>
<line class="st4" x1="442.95" y1="53.24" x2="463.37" y2="37.63"/>
<line class="st4" x1="349.44" y1="37.65" x2="369.86" y2="53.26"/>
<line class="st4" x1="368.54" y1="21.06" x2="382.28" y2="42.77"/>
<line class="st4" x1="441.16" y1="21.15" x2="427.41" y2="42.86"/>
<line class="st4" x1="388.38" y1="15" x2="394.78" y2="36.71"/>
<line class="st4" x1="422.19" y1="15.09" x2="415.79" y2="36.81"/>
</svg>
